<svg width="38" height="38" viewBox="0 0 38 38" fill="none" xmlns="http://www.w3.org/2000/svg">
<circle cx="19" cy="19.0001" r="16.9831" fill="white"/>
<path d="M9.94725 26.891C9.86885 26.7372 9.80759 26.5506 9.76511 26.3361C9.72246 26.1222 9.70129 25.8987 9.70129 25.6708C9.70129 25.6708 9.70129 25.2801 9.70129 25.2346C9.65576 25.2346 9.15727 25.2346 9.11221 25.2346C9.11221 25.2801 9.11221 25.6987 9.11221 25.6987C9.11221 25.9075 9.09409 26.114 9.0585 26.3133C9.0237 26.5132 8.96743 26.6909 8.89271 26.8408C8.81062 27.0056 8.68363 27.1838 8.51544 27.3702C8.35398 27.5489 8.16798 27.7135 7.96564 27.8626C7.9977 27.8978 8.29144 28.2096 8.31742 28.2382C8.4133 28.1743 8.51592 28.0956 8.62286 28.0023C8.7359 27.9029 8.84701 27.7966 8.95171 27.6866C9.04583 27.5907 9.1329 27.4919 9.20954 27.3929C9.28586 27.2949 9.34646 27.2045 9.39248 27.1233L9.41477 27.1103L9.4377 27.1243C9.48548 27.215 9.55106 27.313 9.63347 27.415C9.7138 27.5173 9.80535 27.6178 9.903 27.7135C9.9976 27.8054 10.097 27.8944 10.2003 27.9765C10.2965 28.0534 10.3856 28.1158 10.4674 28.1662C10.4926 28.1355 10.7602 27.8168 10.7901 27.7806C10.6021 27.6544 10.4332 27.5173 10.2925 27.3706C10.1457 27.2176 10.03 27.0566 9.94725 26.891Z" fill="#666666"/>
<path d="M11.7055 26.471L11.6802 26.4454C11.6802 26.4454 11.6802 25.0775 11.6802 25.0285C11.6353 25.0285 11.1678 25.0285 11.123 25.0285C11.123 25.0783 11.123 29.2545 11.123 29.3053C11.1678 29.3053 11.6353 29.3053 11.6802 29.3053C11.6802 29.2545 11.6802 26.9743 11.6802 26.9743L11.7055 26.949C11.7055 26.949 12.3049 26.949 12.3523 26.949C12.3523 26.9046 12.3523 26.5146 12.3523 26.471C12.3049 26.471 11.7055 26.471 11.7055 26.471Z" fill="#666666"/>
<path d="M16.0418 25.0281C16.0418 25.0781 16.0418 29.2379 16.0418 29.2876C16.0867 29.2876 16.5546 29.2876 16.599 29.2876C16.599 29.2379 16.599 25.0781 16.599 25.0281C16.5546 25.0281 16.0867 25.0281 16.0418 25.0281Z" fill="#666666"/>
<path d="M14.6156 28.0577L14.597 28.0508L14.5884 28.0323V27.6869L14.6057 27.6626C14.8183 27.5907 14.9923 27.4597 15.1223 27.2741C15.253 27.0882 15.3189 26.8748 15.3189 26.6399C15.3189 26.5027 15.2926 26.3711 15.2413 26.2487C15.1903 26.1257 15.1184 26.0185 15.0295 25.928L15.0221 25.9099L15.0242 25.9003L15.0477 25.8848C15.0477 25.8848 15.4584 25.8848 15.5037 25.8848C15.5037 25.8407 15.5037 25.4557 15.5037 25.4121C15.4558 25.4121 14.5929 25.4121 14.5929 25.4121L14.5677 25.3869C14.5677 25.3869 14.5677 24.9128 14.5677 24.8665C14.5221 24.8665 14.0286 24.8665 13.9832 24.8665C13.9832 24.9128 13.9832 25.3869 13.9832 25.3869L13.9574 25.4121C13.9574 25.4121 13.0371 25.4121 12.9888 25.4121C12.9888 25.4557 12.9888 25.8407 12.9888 25.8848C13.0349 25.8848 13.4713 25.8848 13.4713 25.8848L13.4949 25.9003L13.4969 25.9099L13.4902 25.9276C13.4043 26.0177 13.3344 26.1256 13.2827 26.2487C13.2316 26.3711 13.2056 26.5027 13.2056 26.6399C13.2056 26.8931 13.2797 27.1181 13.425 27.3092C13.5709 27.5005 13.7613 27.6267 13.9906 27.6844L14.0097 27.7092V28.0604L13.9852 28.0859L13.7596 28.0912C13.7596 28.0912 12.8562 28.0912 12.8088 28.0912C12.8088 28.1348 12.8088 28.5141 12.8088 28.5582C12.8577 28.5579 13.7354 28.5523 13.7354 28.5523C14.0811 28.5489 14.4707 28.5319 14.8927 28.5026C15.3048 28.4737 15.6137 28.4445 15.8159 28.4165C15.8159 28.3778 15.8159 28.0076 15.8159 27.9602C15.7656 27.9648 15.3044 28.0076 15.3044 28.0076L14.6156 28.0577ZM13.8808 27.047C13.7673 26.9281 13.7102 26.7852 13.7102 26.623C13.7102 26.4573 13.7673 26.313 13.8808 26.1932C13.9948 26.0733 14.1226 26.0129 14.2595 26.0129C14.4006 26.0129 14.5284 26.0733 14.6405 26.1932C14.7529 26.3133 14.8083 26.4573 14.8083 26.623C14.8083 26.7852 14.7529 26.9281 14.6405 27.047C14.529 27.167 14.4006 27.2282 14.2595 27.2282C14.1226 27.2282 13.9948 27.1673 13.8808 27.047Z" fill="#666666"/>
<path d="M18.6778 26.8953L18.6998 26.8806L18.723 26.8931C18.7572 26.9511 18.8099 27.0199 18.8813 27.0977C18.9539 27.1778 19.0357 27.2567 19.1248 27.3323C19.2087 27.4055 19.3124 27.4791 19.4343 27.5527C19.5475 27.6213 19.6499 27.6762 19.741 27.7201C19.7631 27.6888 19.9953 27.3658 20.0235 27.3265C19.8901 27.2546 19.7566 27.1703 19.6278 27.0743C19.4889 26.9715 19.3733 26.8641 19.2848 26.7554C19.1989 26.6531 19.1247 26.5243 19.0663 26.3726C19.0065 26.2195 18.977 26.0597 18.977 25.8982V25.742L19.003 25.7162C19.003 25.7162 19.7756 25.7162 19.8239 25.7162C19.8239 25.6729 19.8239 25.2823 19.8239 25.2386C19.7748 25.2386 17.58 25.2386 17.5309 25.2386C17.5309 25.2823 17.5309 25.6729 17.5309 25.7162C17.5788 25.7162 18.3518 25.7162 18.3518 25.7162L18.3772 25.742V25.9093C18.3772 26.0609 18.3478 26.2173 18.2907 26.3747C18.2338 26.5322 18.1639 26.6709 18.0815 26.7874C17.9856 26.9258 17.8647 27.0576 17.7228 27.179C17.5904 27.2922 17.4547 27.3852 17.3177 27.458C17.355 27.4974 17.6536 27.8157 17.6792 27.8423C17.7753 27.7857 17.8788 27.7172 17.9879 27.6375C18.1025 27.5529 18.2149 27.4549 18.3231 27.3451C18.4248 27.238 18.5043 27.1483 18.559 27.0773C18.614 27.0079 18.6536 26.946 18.6778 26.8953Z" fill="#666666"/>
<path d="M20.5837 25.0159C20.5837 25.0647 20.5837 26.1154 20.5837 26.1154L20.5581 26.1412C20.5581 26.1412 19.7326 26.1412 19.6844 26.1412C19.6844 26.1854 19.6844 26.5752 19.6844 26.6191C19.7326 26.6191 20.5581 26.6191 20.5581 26.6191L20.5837 26.6443C20.5837 26.6443 20.5837 27.8735 20.5837 27.9224C20.6281 27.9224 21.1013 27.9224 21.146 27.9224C21.146 27.8731 21.146 25.0659 21.146 25.0159C21.1013 25.0159 20.6281 25.0159 20.5837 25.0159Z" fill="#666666"/>
<path d="M18.4831 28.7077C18.5328 28.7077 20.5265 28.7077 20.5265 28.7077L20.5521 28.7337C20.5521 28.7337 20.5521 29.7301 20.5521 29.7791C20.5972 29.7791 21.0755 29.7791 21.1199 29.7791C21.1199 29.7301 21.1199 28.2837 21.1199 28.2355C21.0703 28.2355 18.5328 28.2355 18.4831 28.2355C18.4831 28.2789 18.4831 28.6642 18.4831 28.7077Z" fill="#666666"/>
<path d="M22.2203 25.7949C22.2692 25.7949 23.6228 25.7949 23.6228 25.7949L23.6418 25.8035L23.6486 25.8206V25.8232C23.6271 26.0404 23.5625 26.2543 23.4579 26.4595C23.3532 26.663 23.215 26.8551 23.0491 27.0304C22.8868 27.201 22.7031 27.3598 22.5002 27.5011C22.3082 27.6364 22.1108 27.748 21.9144 27.8381C21.9561 27.8809 22.2554 28.188 22.2791 28.212C22.5759 28.074 22.8501 27.9077 23.0912 27.7168C23.3366 27.5226 23.5497 27.2978 23.7243 27.0478C23.8904 26.8108 24.0249 26.5405 24.1227 26.2444C24.2181 25.9571 24.2731 25.6415 24.2886 25.3062C24.2365 25.3062 22.2692 25.3062 22.2203 25.3062C22.2203 25.3502 22.2203 25.7512 22.2203 25.7949Z" fill="#666666"/>
<path d="M25.0292 25.0215C25.0292 25.0719 25.0292 29.2541 25.0292 29.3043C25.0746 29.3043 25.5529 29.3043 25.5975 29.3043C25.5975 29.2541 25.5975 25.0719 25.5975 25.0215C25.5529 25.0215 25.0746 25.0215 25.0292 25.0215Z" fill="#666666"/>
<path d="M28.3091 27.2088C28.5377 26.972 28.6538 26.6809 28.6538 26.3437C28.6538 26.0066 28.5377 25.7155 28.3091 25.4788C28.0806 25.2421 27.7994 25.1214 27.4728 25.1214C27.1466 25.1214 26.8651 25.2421 26.6368 25.4788C26.4075 25.7155 26.2916 26.0071 26.2916 26.3437C26.2916 26.6809 26.4075 26.9715 26.6368 27.2088C26.8651 27.4457 27.1466 27.5659 27.4728 27.5659C27.7994 27.5659 28.0809 27.4457 28.3091 27.2088ZM26.8604 26.3437C26.8604 26.145 26.921 25.9742 27.0407 25.8368C27.162 25.6977 27.307 25.6274 27.4728 25.6274C27.6386 25.6274 27.7841 25.6977 27.9054 25.8368C28.0247 25.9746 28.0856 26.1453 28.0856 26.3437C28.0856 26.5423 28.0247 26.7129 27.9054 26.8503C27.7841 26.9897 27.6386 27.0597 27.4728 27.0597C27.307 27.0597 27.162 26.9897 27.0407 26.851C26.921 26.7131 26.8604 26.5428 26.8604 26.3437Z" fill="#666666"/>
<path d="M29.4712 25.0158C29.4712 25.0646 29.4712 26.0649 29.4712 26.0649L29.4469 26.0911C29.4469 26.0911 28.9049 26.0911 28.8586 26.0911C28.8586 26.1345 28.8586 26.5362 28.8586 26.5799C28.9049 26.5799 29.4469 26.5799 29.4469 26.5799L29.4712 26.6056C29.4712 26.6056 29.4712 27.6565 29.4712 27.7047C29.5171 27.7047 29.9893 27.7047 30.0343 27.7047C30.0343 27.6552 30.0343 25.0659 30.0343 25.0158C29.9893 25.0158 29.5171 25.0158 29.4712 25.0158Z" fill="#666666"/>
<path d="M29.4193 28.3347L29.3936 28.3597H28.0235L27.9979 28.3347C27.9979 28.3347 27.9979 27.9624 27.9979 27.9173C27.9528 27.9173 27.4745 27.9173 27.4293 27.9173C27.4293 27.9664 27.4293 29.629 27.4293 29.6779C27.4798 29.6779 29.9373 29.6779 29.987 29.6779C29.987 29.629 29.987 27.9664 29.987 27.9173C29.9418 27.9173 29.4635 27.9173 29.4193 27.9173C29.4193 27.9624 29.4193 28.3347 29.4193 28.3347ZM29.4193 29.1798L29.3936 29.2053H28.0235L27.9979 29.1798V28.8467L28.0235 28.8213H29.3936L29.4193 28.8467V29.1798Z" fill="#666666"/>
<mask id="mask0_93_1208" style="mask-type:luminance" maskUnits="userSpaceOnUse" x="16" y="20" width="10" height="3">
<path d="M20.7016 20.2223C18.1612 20.2223 16.102 20.6433 16.102 21.1627C16.102 21.682 18.1612 22.1035 20.7016 22.1035C23.2424 22.1035 25.3028 21.682 25.3028 21.1627C25.3028 20.6433 23.2424 20.2223 20.7016 20.2223Z" fill="white"/>
</mask>
<g mask="url(#mask0_93_1208)">
<path d="M20.7016 20.2223C18.1612 20.2223 16.102 20.6433 16.102 21.1627C16.102 21.682 18.1612 22.1035 20.7016 22.1035C23.2424 22.1035 25.3028 21.682 25.3028 21.1627C25.3028 20.6433 23.2424 20.2223 20.7016 20.2223Z" fill="url(#paint0_radial_93_1208)"/>
</g>
<mask id="mask1_93_1208" style="mask-type:luminance" maskUnits="userSpaceOnUse" x="13" y="8" width="8" height="13">
<path d="M20.2234 11.7917C20.8152 10.2105 19.8988 8.51733 18.3074 8.26961C15.8294 7.88416 14.7409 10.5839 15.6368 12.1775C16.5578 13.8142 18.7719 14.2472 18.7873 16.7909C18.7964 18.4578 17.3558 19.1908 16.404 19.152C15.8481 19.1288 15.46 18.8772 15.4345 18.3928C15.3421 17.3266 16.637 17.117 16.637 17.117C15.5878 17.0914 13.7242 17.3409 13.4679 18.9515C13.1638 20.8527 15.4866 21.5412 17.334 20.2196C19.213 18.8777 19.529 16.9326 18.7873 15.0379C18.4685 14.2234 17.6571 13.2317 17.1576 12.6112C16.7603 12.1177 16.44 11.3832 16.7693 10.696C17.322 9.54574 19.1721 9.35542 19.7682 10.733C19.9456 11.1424 19.9308 11.5402 19.9279 11.6744C19.9259 11.7759 19.9234 11.8591 19.9387 11.9088C19.9853 12.0592 20.1378 11.9952 20.167 11.9308C20.1968 11.866 20.1997 11.8572 20.2234 11.7917Z" fill="white"/>
</mask>
<g mask="url(#mask1_93_1208)">
<path d="M20.2234 11.7917C20.8152 10.2105 19.8988 8.51733 18.3074 8.26961C15.8294 7.88416 14.7409 10.5839 15.6368 12.1775C16.5578 13.8142 18.7719 14.2472 18.7873 16.7909C18.7964 18.4578 17.3558 19.1908 16.404 19.152C15.8481 19.1288 15.46 18.8772 15.4345 18.3928C15.3421 17.3266 16.637 17.117 16.637 17.117C15.5878 17.0914 13.7242 17.3409 13.4679 18.9515C13.1638 20.8527 15.4866 21.5412 17.334 20.2196C19.213 18.8777 19.529 16.9326 18.7873 15.0379C18.4685 14.2234 17.6571 13.2317 17.1576 12.6112C16.7603 12.1177 16.44 11.3832 16.7693 10.696C17.322 9.54574 19.1721 9.35542 19.7682 10.733C19.9456 11.1424 19.9308 11.5402 19.9279 11.6744C19.9259 11.7759 19.9234 11.8591 19.9387 11.9088C19.9853 12.0592 20.1378 11.9952 20.167 11.9308C20.1968 11.866 20.1997 11.8572 20.2234 11.7917Z" fill="url(#paint1_linear_93_1208)"/>
</g>
<mask id="mask2_93_1208" style="mask-type:luminance" maskUnits="userSpaceOnUse" x="21" y="8" width="4" height="3">
<path d="M23.1361 8.24971C22.4858 8.38054 21.6974 9.07849 21.7048 10.4232C21.7064 10.5866 21.7487 10.6306 21.7885 10.5961C21.8042 10.5837 21.8315 10.5353 21.8315 10.5353C21.8315 10.5353 22.0388 10.08 22.6234 9.74662C23.3303 9.34353 23.6646 9.62845 24.0863 9.21574C24.507 8.80768 24.0278 8.06676 23.1361 8.24971Z" fill="white"/>
</mask>
<g mask="url(#mask2_93_1208)">
<path d="M23.1361 8.24971C22.4858 8.38054 21.6974 9.07849 21.7048 10.4232C21.7064 10.5866 21.7487 10.6306 21.7885 10.5961C21.8042 10.5837 21.8315 10.5353 21.8315 10.5353C21.8315 10.5353 22.0388 10.08 22.6234 9.74662C23.3303 9.34353 23.6646 9.62845 24.0863 9.21574C24.507 8.80768 24.0278 8.06676 23.1361 8.24971Z" fill="url(#paint2_linear_93_1208)"/>
</g>
<mask id="mask3_93_1208" style="mask-type:luminance" maskUnits="userSpaceOnUse" x="22" y="10" width="3" height="3">
<path d="M24.2519 11.2535C24.2519 11.2535 24.4758 11.0774 24.2951 10.8512C23.9853 10.5125 23.2567 10.8977 22.9824 11.3665C22.9824 11.3665 22.9543 11.4112 22.9651 11.4443C22.9705 11.4621 22.9904 11.4717 23.0294 11.4786C23.2261 11.5153 23.3313 11.5873 23.5668 11.7237C23.8014 11.8599 24.2029 12.1858 24.5264 11.9189C24.8332 11.6635 24.6068 11.2572 24.2519 11.2535Z" fill="white"/>
</mask>
<g mask="url(#mask3_93_1208)">
<path d="M24.2519 11.2535C24.2519 11.2535 24.4758 11.0774 24.2951 10.8512C23.9853 10.5125 23.2567 10.8977 22.9824 11.3665C22.9824 11.3665 22.9543 11.4112 22.9651 11.4443C22.9705 11.4621 22.9904 11.4717 23.0294 11.4786C23.2261 11.5153 23.3313 11.5873 23.5668 11.7237C23.8014 11.8599 24.2029 12.1858 24.5264 11.9189C24.8332 11.6635 24.6068 11.2572 24.2519 11.2535Z" fill="url(#paint3_linear_93_1208)"/>
</g>
<path d="M15.544 14.5709L15.5579 14.5597L15.5584 14.5531L15.544 14.5709Z" fill="#666666"/>
<path d="M11.4135 13.3253L11.4251 13.2964C11.4203 13.3073 11.4155 13.3164 11.4135 13.3253Z" fill="#666666"/>
<path d="M12.0698 13.3083C12.052 13.2578 12.0475 13.2299 11.9956 13.2057C11.9553 13.1847 11.8979 13.1667 11.8434 13.1656C11.7533 13.1629 11.6314 13.2081 11.5582 13.2594C11.593 13.1743 11.6252 13.0856 11.6531 12.9989C11.6767 12.9273 11.7195 12.8708 11.7506 12.802C11.8044 12.6814 11.863 12.5668 11.9258 12.4492C11.9776 12.3513 12.036 12.2626 12.078 12.1635C12.1163 12.0723 12.1877 12.0134 12.2353 11.9244C12.2518 11.8951 12.3008 11.8619 12.3134 11.833C12.3265 11.8079 12.415 11.7122 12.415 11.6867C12.3709 11.6701 12.2532 11.8013 12.2266 11.8276L12.2314 11.8141C12.2165 11.8321 12.1676 11.8619 12.1517 11.8802C12.1084 11.9333 12.0712 11.9913 12.0283 12.0442C11.9776 12.108 11.9507 12.1545 11.8968 12.2151C11.8453 12.2722 11.7745 12.3687 11.74 12.437C11.692 12.5342 11.6512 12.6091 11.5915 12.6993C11.5423 12.7741 11.5117 12.8452 11.4741 12.9229C11.4307 13.0118 11.3872 13.0944 11.3659 13.1884C11.3443 13.2804 11.2845 13.3691 11.254 13.4587C11.2282 13.5272 11.2308 13.5911 11.2229 13.6588C11.211 13.7653 11.211 13.8557 11.2434 13.9561C11.2756 14.0577 11.3921 14.1313 11.5104 14.109C11.626 14.0874 11.74 13.9777 11.8227 13.906C11.9813 13.7667 12.1351 13.4949 12.0698 13.3083ZM11.6446 13.7725C11.6199 13.8078 11.5837 13.8777 11.5315 13.8855C11.4656 13.8971 11.447 13.8382 11.4394 13.7972C11.4204 13.7 11.4556 13.5953 11.4913 13.4956L11.504 13.4587C11.5056 13.4507 11.5101 13.4417 11.5134 13.4321L11.504 13.4587C11.4913 13.506 11.5117 13.5325 11.5716 13.5291C11.6096 13.5272 11.6654 13.4869 11.6975 13.497C11.7889 13.5276 11.6746 13.7255 11.6446 13.7725Z" fill="#666666"/>
<path d="M15.6702 14.8385C15.7091 14.8067 15.7948 14.7609 15.8166 14.8319C15.8235 14.8545 15.8041 14.9012 15.7948 14.922C15.7864 14.9432 15.754 14.9778 15.7564 14.9988C15.7595 15.0264 15.797 15.0357 15.8191 15.0309C15.8546 15.0245 15.8773 14.9988 15.9043 14.9738C15.9601 14.9201 15.9825 14.847 16.0111 14.7745C16.0295 14.7226 16.034 14.6491 15.9899 14.6118C15.9514 14.5826 15.877 14.5702 15.832 14.5744C15.7861 14.5789 15.7231 14.6118 15.6963 14.6469C15.6598 14.6334 15.6723 14.6267 15.6822 14.5986C15.6877 14.576 15.6825 14.5608 15.6566 14.5488C15.6312 14.5369 15.5825 14.5391 15.5579 14.56C15.5501 14.5848 15.5475 14.6123 15.544 14.6402C15.5334 14.6953 15.5145 14.7506 15.4986 14.8053C15.4791 14.8678 15.4414 14.9312 15.4116 14.9889C15.5252 15.1079 15.5993 14.8946 15.6702 14.8385Z" fill="#666666"/>
<path d="M10.9232 13.0119C10.8474 12.9545 10.7218 12.9476 10.6293 12.9417L10.5987 12.9404C10.6205 12.9129 10.6439 12.8845 10.6665 12.858C10.7218 12.7932 10.7541 12.6898 10.7818 12.6127C10.7988 12.5614 10.8229 12.5146 10.8262 12.4601C10.8368 12.3473 10.8145 12.2314 10.7384 12.14C10.684 12.0712 10.5981 12.0145 10.503 12.0034C10.4818 12.0015 10.4433 12.006 10.4183 12.0039C10.3922 12.0028 10.3632 12.0026 10.3364 12.006C10.1858 12.0217 10.0213 12.119 9.95735 12.2353C9.91583 12.3085 9.92176 12.4282 9.99359 12.4822C10.0354 12.5133 10.111 12.5582 10.1647 12.5563C10.2097 12.5563 10.2591 12.5165 10.2437 12.4702C10.2373 12.4495 10.2105 12.424 10.2004 12.403C10.1884 12.3799 10.1745 12.3589 10.1722 12.3324C10.1682 12.2797 10.28 12.2274 10.3338 12.2143C10.4065 12.1953 10.5301 12.2393 10.5735 12.2991C10.5913 12.3231 10.6001 12.3671 10.6021 12.3959C10.6127 12.5247 10.5577 12.6626 10.4679 12.7613C10.4065 12.8237 10.3564 12.8893 10.2965 12.9451C10.2806 12.9606 10.2646 12.9735 10.2485 12.9871C10.1868 13.0078 10.1302 13.0278 10.0698 13.0575C10.0348 13.0745 10.0016 13.0908 9.96954 13.1146C9.92288 13.1497 9.86821 13.1553 9.85442 13.2161C9.84512 13.2587 9.86773 13.2901 9.90941 13.3044C9.94421 13.3172 9.96954 13.3084 10.0011 13.3018C10.02 13.2983 10.0324 13.3013 10.0512 13.2937C10.0904 13.2778 10.1252 13.2452 10.1647 13.2268C10.2121 13.2058 10.2606 13.1885 10.3082 13.17C10.4151 13.1324 10.5618 13.0945 10.6771 13.1181C10.8217 13.1471 10.8041 13.3636 10.7768 13.4628C10.7682 13.4938 10.7653 13.5348 10.7456 13.5686C10.7294 13.5997 10.6999 13.6238 10.6834 13.6557C10.6628 13.6931 10.6495 13.7325 10.628 13.77C10.5793 13.8505 10.5201 13.9255 10.4674 14.004C10.4257 14.0644 10.3718 14.1119 10.3192 14.1651C10.2782 14.2077 10.2405 14.2616 10.199 14.3049C10.1308 14.3748 10.0526 14.4362 9.98253 14.5039C9.92833 14.557 9.88168 14.6158 9.82155 14.6657C9.72727 14.7449 9.64774 14.8351 9.54705 14.907C9.51066 14.9331 9.46656 14.9499 9.43177 14.9804C9.3601 15.0473 9.28281 15.1098 9.19896 15.1664C9.11189 15.2235 9.0274 15.2926 9.02515 15.3987C9.02259 15.5009 9.15342 15.5193 9.24562 15.5462C9.33428 15.5735 9.42006 15.526 9.4943 15.4754C9.56196 15.4305 9.62081 15.3748 9.68847 15.3295C9.70867 15.3154 9.73352 15.3073 9.75357 15.2905C9.78082 15.2666 9.79926 15.2337 9.82604 15.2073C9.85362 15.181 9.88729 15.1613 9.91583 15.138C9.95559 15.104 9.99953 15.0721 10.0321 15.0319C10.0624 14.9929 10.1012 14.9639 10.1337 14.9262C10.1884 14.8606 10.2609 14.81 10.317 14.7449C10.3989 14.6483 10.4802 14.551 10.5553 14.4482C10.6319 14.3432 10.6935 14.2329 10.7682 14.1271C10.829 14.0427 10.8649 13.948 10.9133 13.8584C10.9351 13.817 10.9614 13.7763 10.9822 13.7333C11.0345 13.6366 11.0444 13.5273 11.0557 13.421C11.0605 13.3823 11.0666 13.3429 11.0595 13.3013C11.0406 13.1894 11.0206 13.0859 10.9232 13.0119Z" fill="#666666"/>
<path d="M12.4291 14.7906C12.3594 14.8118 12.2842 14.8742 12.2006 14.8647C12.1719 14.8609 12.1399 14.85 12.1115 14.8395C12.0504 14.816 12.0486 14.7573 12.0565 14.7105C12.0644 14.6605 12.0958 14.5965 12.1224 14.5516C12.1429 14.5134 12.1784 14.477 12.2079 14.4442C12.2688 14.3795 12.3374 14.3207 12.4192 14.2744C12.526 14.2139 12.6682 14.1317 12.8106 14.1392C12.8585 14.1422 12.8976 14.1628 12.9252 14.2011C12.9393 14.2195 12.9571 14.2795 12.9815 14.2772L13.011 14.2694C13.0204 14.2582 13.0251 14.2269 13.0304 14.2128L13.0406 14.1831C13.0435 14.1701 13.0386 14.1632 13.0435 14.1511C13.049 14.1325 13.049 14.1118 13.0381 14.0949C13.0326 14.0837 13.0238 14.0675 13.007 14.0532C12.9741 14.0282 12.9265 14.0159 12.8891 13.9976C12.8529 13.9792 12.7936 13.9864 12.7535 13.988C12.6682 13.9931 12.5808 14.0098 12.5005 14.0358C12.0822 14.1685 11.7937 14.498 11.6608 14.8311C11.6314 14.9014 11.6237 14.9907 11.673 15.0623C11.7233 15.1338 11.8232 15.1482 11.9128 15.1594C11.9776 15.1663 12.0786 15.1625 12.1399 15.1472C12.1872 15.1357 12.2293 15.1152 12.2738 15.1009C12.3154 15.0861 12.3355 15.0655 12.3769 15.0446C12.4565 15.0044 12.5194 14.9577 12.5407 14.8824C12.5473 14.8567 12.5669 14.8158 12.5491 14.7921C12.5228 14.7578 12.4615 14.7809 12.4291 14.7906Z" fill="#666666"/>
<path d="M13.6918 14.8595C13.7436 14.8008 13.7439 14.8992 13.7319 14.935C13.7032 15.0188 13.622 15.0562 13.6855 15.0724C13.7243 15.0814 13.7837 15.0254 13.8034 15.0044C13.8441 14.9594 13.8606 14.9138 13.8853 14.8599C13.9063 14.8133 13.928 14.7734 13.9368 14.7219C13.9443 14.6791 13.9488 14.6339 13.9217 14.6002C13.8912 14.5641 13.8441 14.5744 13.8047 14.5972C13.7881 14.6066 13.7678 14.6162 13.7537 14.6286L13.7354 14.6505L13.7242 14.6255C13.7168 14.5999 13.6959 14.5951 13.6725 14.5795C13.6029 14.534 13.5311 14.5948 13.4827 14.6449C13.432 14.635 13.4513 14.4771 13.358 14.5444C13.3195 14.5709 13.3344 14.6162 13.3397 14.6499C13.3507 14.7314 13.3296 14.8008 13.2986 14.881C13.2882 14.9117 13.2784 14.9624 13.285 14.9967C13.3034 15.0793 13.3801 14.9518 13.4004 14.9249C13.4208 14.8964 13.4513 14.8628 13.4697 14.8341C13.4873 14.8075 13.4805 14.801 13.5156 14.7976C13.5589 14.7913 13.5582 14.8567 13.5438 14.8957C13.5271 14.9377 13.489 15.0527 13.5709 15.007C13.6339 14.9725 13.6469 14.9097 13.6918 14.8595Z" fill="#666666"/>
<path d="M15.319 14.9812C15.3386 14.9659 15.3489 14.8668 15.35 14.8418C15.3538 14.7827 15.3881 14.6169 15.3194 14.5826L15.2972 14.5917C15.2801 14.4987 15.0694 14.5979 15.0227 14.6231C14.9233 14.6772 14.8037 14.79 14.7795 14.8975C14.7526 15.0166 14.8505 15.0624 14.9594 15.0392C15.0595 15.0184 15.1181 14.9452 15.206 14.9077C15.241 14.9189 15.2714 15.0137 15.319 14.9812ZM15.1201 14.8341C15.0967 14.8514 15.0125 14.9151 14.9952 14.8562C14.983 14.8158 15.0617 14.758 15.0893 14.7421C15.13 14.7188 15.1868 14.7323 15.214 14.6871L15.2091 14.6839H15.2175L15.214 14.6871L15.2158 14.6873C15.2236 14.7105 15.1957 14.7536 15.1815 14.7724C15.1662 14.796 15.1444 14.8171 15.1201 14.8341Z" fill="#666666"/>
<path d="M14.6572 14.6002C14.6078 14.5689 14.5502 14.5659 14.4931 14.5641L14.5113 14.5388C14.5239 14.5118 14.5746 14.4416 14.4956 14.4559C14.4337 14.4666 14.45 14.4511 14.3984 14.4771L14.39 14.4807C14.3379 14.4849 14.3078 14.5255 14.2749 14.5604C14.2037 14.5659 14.0838 14.5795 14.0917 14.6074C14.0942 14.621 14.1423 14.6422 14.1528 14.6478C14.1673 14.6537 14.1805 14.6574 14.1933 14.659C14.1532 14.7137 14.1152 14.7705 14.0844 14.8187C14.0588 14.8567 14.054 14.8765 14.028 14.9153C14.0137 14.9396 13.9972 14.9624 13.9822 14.9847C13.9703 14.9874 13.9589 14.9897 13.9509 14.9954L13.9648 15.0153C13.9583 15.0267 13.9496 15.0379 13.9454 15.0501C13.9217 15.0996 13.8936 15.1453 13.8718 15.1952C13.8377 15.2722 13.7415 15.5087 13.7298 15.5478C13.7155 15.5941 13.6958 15.6655 13.6823 15.7112C13.6358 15.8774 13.6013 16.1646 13.6013 16.2108C13.6013 16.2566 13.6057 16.3009 13.61 16.3479C13.6113 16.3634 13.6139 16.4442 13.6401 16.4498C13.6727 16.4547 13.6769 16.3817 13.6783 16.3645C13.682 16.2778 13.7139 16.0354 13.7242 15.9966C13.7364 15.9507 13.7519 15.8752 13.7678 15.8293C13.7944 15.7546 13.812 15.6878 13.8393 15.6119C13.8725 15.5186 13.9055 15.4678 13.9443 15.3769C13.9624 15.3321 14.0381 15.1966 14.0546 15.1594C14.0593 15.1473 14.0771 15.1158 14.1018 15.0753C14.1159 15.0799 14.1279 15.0825 14.1348 15.0846C14.1885 15.0928 14.2446 15.0851 14.2956 15.0766C14.3501 15.0679 14.4051 15.0658 14.4518 15.0366C14.506 15.0044 14.5645 14.9834 14.6096 14.9377C14.6594 14.8824 14.7094 14.8102 14.7295 14.7355C14.7375 14.7033 14.7304 14.6873 14.7128 14.6634C14.6998 14.642 14.6801 14.6149 14.6572 14.6002ZM14.4973 14.8484C14.4454 14.9106 14.3501 14.9528 14.2692 14.9694C14.2329 14.9778 14.1949 14.982 14.1582 14.988C14.2126 14.9055 14.2799 14.8102 14.3397 14.7421C14.3644 14.7156 14.3846 14.6916 14.4064 14.6679C14.4324 14.6704 14.4593 14.6748 14.4814 14.686C14.515 14.7035 14.5289 14.7145 14.5344 14.7578C14.5372 14.7913 14.5175 14.8239 14.4973 14.8484Z" fill="#666666"/>
<path d="M16.7305 14.4382C16.7181 14.4307 16.6986 14.4706 16.68 14.498C16.6296 14.5807 16.5509 14.7558 16.3498 15.0091C16.3409 14.9821 16.3022 14.9471 16.2931 14.9279C16.2685 14.8894 16.2549 14.8499 16.249 14.8063C16.2421 14.764 16.2379 14.7188 16.2387 14.6756C16.2405 14.6449 16.2326 14.5936 16.2018 14.5729L16.2006 14.5631C16.1826 14.5459 16.1563 14.5515 16.1444 14.5631C16.1165 14.5884 16.1222 14.6468 16.1154 14.679C16.1093 14.7218 16.0951 14.7654 16.0971 14.8099C16.0971 14.8395 16.1079 14.873 16.1154 14.9036C16.1225 14.928 16.1332 14.9538 16.1552 14.9721C16.1788 14.9928 16.1967 15.0136 16.2256 15.0263C16.2485 15.0356 16.2889 15.0526 16.3184 15.0473C16.2915 15.0807 16.2616 15.1153 16.2296 15.152C15.96 15.4567 15.421 15.8594 15.2977 15.9569C15.1733 16.0538 15.1815 16.0885 15.278 16.1187C15.3726 16.1487 15.4462 16.1633 15.8371 15.8195C16.408 15.3218 16.6266 14.8478 16.6981 14.7032C16.7683 14.5599 16.7683 14.4632 16.7305 14.4382Z" fill="#666666"/>
<path d="M13.098 14.5734C13.0522 14.4695 12.8631 14.6117 12.8207 14.6464C12.7132 14.7326 12.5805 14.8917 12.6752 15.0427C12.6857 15.0593 12.7031 15.0846 12.7187 15.0961C12.7581 15.1269 12.8085 15.1215 12.8538 15.1197C12.9037 15.1173 12.9547 15.1147 12.9993 15.0928C13.0631 15.0604 13.1226 15.007 13.145 14.9361C13.1574 14.8989 13.1681 14.8599 13.1827 14.8239C13.1893 14.8075 13.1949 14.7913 13.1979 14.7758C13.2003 14.7455 13.1973 14.7157 13.1907 14.686C13.1827 14.6464 13.153 14.5332 13.098 14.5734ZM13.0573 14.7724L13.0544 14.7931C13.0387 14.8742 12.9812 14.9616 12.8877 14.9396C12.8463 14.9289 12.8332 14.9002 12.8463 14.8609C12.8604 14.8171 12.9045 14.8001 12.9436 14.779C12.9699 14.7636 13.0217 14.7225 13.0326 14.6911C13.0435 14.7006 13.049 14.7145 13.0538 14.7254C13.0594 14.7408 13.0594 14.7572 13.0573 14.7724Z" fill="#666666"/>
<path d="M13.2428 12.4396C13.1982 12.4205 13.1328 12.4015 13.0825 12.4095C13.0264 12.418 12.9828 12.421 12.9353 12.4471C12.8554 12.4906 12.8264 12.522 12.7277 12.6137C12.6856 12.6509 12.6127 12.6965 12.5575 12.7026C12.5683 12.6352 12.5954 12.5094 12.6414 12.4396C12.6752 12.3873 12.6929 12.2822 12.7347 12.2267C12.7591 12.1943 12.7677 12.1678 12.7855 12.1396C12.9133 12.0655 13.0357 11.9972 13.1703 11.9299C13.2439 11.8919 13.2962 11.8598 13.3749 11.8327C13.4407 11.8121 13.5099 11.7717 13.5774 11.7508C13.6358 11.7316 13.6958 11.7083 13.7545 11.6889C13.8994 11.6397 13.9885 11.6298 14.1014 11.5929C14.2029 11.5598 14.297 11.5464 14.4067 11.5252C14.4668 11.5132 14.523 11.4986 14.5868 11.4917C14.6224 11.488 14.871 11.4824 14.8505 11.4561C14.8144 11.408 14.6522 11.4001 14.6156 11.3987C14.4883 11.396 14.3413 11.4074 14.2356 11.416C14.0296 11.4353 13.9049 11.4757 13.7035 11.5287C13.5066 11.5804 13.3036 11.652 13.1192 11.7364C13.0899 11.7494 13.0557 11.7614 13.0238 11.7729C13.0557 11.6971 13.045 11.6738 12.9337 11.6493H12.9252C12.8631 11.6323 12.7988 11.6902 12.7677 11.7405C12.7422 11.7819 12.7139 11.8223 12.6889 11.8662C12.6786 11.8836 12.6696 11.9054 12.6602 11.9283C12.6154 11.9501 12.575 11.9713 12.5293 11.9985C12.4474 12.0495 12.3581 12.091 12.2898 12.1654C12.2494 12.2103 12.1679 12.2931 12.1719 12.3641C12.1872 12.4037 12.1945 12.4465 12.2524 12.4531C12.3053 12.4593 12.3355 12.4149 12.3735 12.3893C12.4171 12.3601 12.4572 12.3261 12.5033 12.3027C12.4934 12.3263 12.4846 12.3505 12.4762 12.3675C12.4535 12.4239 12.4453 12.4494 12.4259 12.5082C12.3946 12.6022 12.3629 12.6317 12.3696 12.733C12.3842 12.9354 12.6161 12.9723 12.7942 12.8276C12.8319 12.7965 12.8317 12.7653 12.8753 12.7372C12.9173 12.7114 12.9815 12.6936 13.0108 12.7489C13.049 12.8222 12.9797 12.9682 12.9491 13.0346C12.9265 13.0819 12.8354 13.2527 12.7403 13.3588C12.6924 13.4117 12.7519 13.5025 12.8736 13.4908C12.9475 13.4833 13.0374 13.3614 13.0701 13.3086C13.1315 13.2078 13.2111 13.098 13.2476 12.9849C13.2784 12.887 13.2975 12.8138 13.3155 12.7114C13.3307 12.6213 13.3344 12.4797 13.2428 12.4396Z" fill="#666666"/>
<path d="M12.1864 13.633C12.1572 13.684 12.1698 13.7828 12.2789 13.7618C12.3874 13.7412 12.4811 13.5484 12.2813 13.5399L12.2923 13.5827C12.2777 13.5241 12.191 13.6211 12.1864 13.633Z" fill="#666666"/>
<path d="M12.1767 12.2537L12.1719 12.2303L12.1676 12.2152L12.1767 12.2537Z" fill="#666666"/>
<mask id="mask4_93_1208" style="mask-type:luminance" maskUnits="userSpaceOnUse" x="14" y="12" width="12" height="7">
<path d="M25.2465 15.7059C24.7381 15.2877 24.1955 15.7372 23.8645 15.9958C23.6987 16.1257 23.6059 16.0877 23.5504 16.0234C23.4962 15.9589 23.4228 15.8295 23.2689 15.8167C22.8793 15.779 22.788 16.1191 22.5289 16.5086C22.1536 17.0707 21.3456 17.2411 20.8027 16.9205C20.3966 16.6785 20.1979 16.3211 20.1112 16.1109C22.0093 15.9533 23.4138 15.3322 23.634 13.7293C23.8535 12.1509 22.0431 11.6349 20.7612 12.2853C19.4597 12.9436 19.2984 14.4073 19.4929 15.2271C19.5827 15.2007 19.7418 15.1649 19.8587 15.1284C19.8668 13.9949 20.2802 13.5753 20.8295 13.3725C21.7139 13.0465 22.3383 13.6473 21.919 14.2813C21.2712 15.2626 19.4277 15.5214 18.1701 15.7439C17.237 15.9084 15.589 16.0627 14.6487 17.0944C14.9817 16.882 15.3421 16.7056 16.9535 16.4749C18.4998 16.2531 18.7696 16.3145 19.7455 16.1714C20.0758 17.0761 21.0031 18.747 23.413 18.2838C24.9712 17.983 25.4777 17.159 25.525 16.5146C25.5511 16.1354 25.4046 15.8363 25.2465 15.7059Z" fill="white"/>
</mask>
<g mask="url(#mask4_93_1208)">
<path d="M25.2465 15.7059C24.7381 15.2877 24.1955 15.7372 23.8645 15.9958C23.6987 16.1257 23.6059 16.0877 23.5504 16.0234C23.4962 15.9589 23.4228 15.8295 23.2689 15.8167C22.8793 15.779 22.788 16.1191 22.5289 16.5086C22.1536 17.0707 21.3456 17.2411 20.8027 16.9205C20.3966 16.6785 20.1979 16.3211 20.1112 16.1109C22.0093 15.9533 23.4138 15.3322 23.634 13.7293C23.8535 12.1509 22.0431 11.6349 20.7612 12.2853C19.4597 12.9436 19.2984 14.4073 19.4929 15.2271C19.5827 15.2007 19.7418 15.1649 19.8587 15.1284C19.8668 13.9949 20.2802 13.5753 20.8295 13.3725C21.7139 13.0465 22.3383 13.6473 21.919 14.2813C21.2712 15.2626 19.4277 15.5214 18.1701 15.7439C17.237 15.9084 15.589 16.0627 14.6487 17.0944C14.9817 16.882 15.3421 16.7056 16.9535 16.4749C18.4998 16.2531 18.7696 16.3145 19.7455 16.1714C20.0758 17.0761 21.0031 18.747 23.413 18.2838C24.9712 17.983 25.4777 17.159 25.525 16.5146C25.5511 16.1354 25.4046 15.8363 25.2465 15.7059Z" fill="url(#paint4_linear_93_1208)"/>
</g>
<defs>
<radialGradient id="paint0_radial_93_1208" cx="0" cy="0" r="1" gradientUnits="userSpaceOnUse" gradientTransform="translate(20.5989 21.1192) scale(4.59996 0.940974)">
<stop stop-color="#C6C5C5"/>
<stop offset="0.101124" stop-color="#C6C5C5"/>
<stop offset="0.75382" stop-color="white"/>
<stop offset="0.85955" stop-color="white"/>
<stop offset="1" stop-color="white"/>
</radialGradient>
<linearGradient id="paint1_linear_93_1208" x1="21.0644" y1="10.0261" x2="20.4474" y2="18.8417" gradientUnits="userSpaceOnUse">
<stop stop-color="#8ACF25"/>
<stop offset="0.067416" stop-color="#8ACF25"/>
<stop offset="0.960674" stop-color="#38B73E"/>
<stop offset="1" stop-color="#38B73E"/>
</linearGradient>
<linearGradient id="paint2_linear_93_1208" x1="24.6693" y1="9.86431" x2="24.0539" y2="18.657" gradientUnits="userSpaceOnUse">
<stop stop-color="#8ACF25"/>
<stop offset="0.067416" stop-color="#8ACF25"/>
<stop offset="0.960674" stop-color="#38B73E"/>
<stop offset="1" stop-color="#38B73E"/>
</linearGradient>
<linearGradient id="paint3_linear_93_1208" x1="16.6399" y1="11.5871" x2="24.3519" y2="10.2365" gradientUnits="userSpaceOnUse">
<stop stop-color="#F7960F"/>
<stop offset="0.247191" stop-color="#F79610"/>
<stop offset="0.385498" stop-color="#F79610"/>
<stop offset="0.904494" stop-color="#ED1C24"/>
<stop offset="1" stop-color="#ED1C24"/>
</linearGradient>
<linearGradient id="paint4_linear_93_1208" x1="16.0739" y1="12.4257" x2="24.8072" y2="10.8645" gradientUnits="userSpaceOnUse">
<stop stop-color="#F7960F"/>
<stop offset="0.247191" stop-color="#F79610"/>
<stop offset="0.385498" stop-color="#F79610"/>
<stop offset="0.904494" stop-color="#ED1C24"/>
<stop offset="1" stop-color="#ED1C24"/>
</linearGradient>
</defs>
</svg>
