<svg width="142" height="60" viewBox="0 0 142 60" fill="none" xmlns="http://www.w3.org/2000/svg">
<path fill-rule="evenodd" clip-rule="evenodd" d="M71.5678 4.00274C72.1225 3.07616 72.2219 1.95587 71.855 1.23878C71.4868 0.523752 70.8449 0.863752 70.3317 1.65022C69.8206 2.43668 68.2442 5.27551 65.6699 6.11143C63.0977 6.94803 64.1882 7.60468 64.8218 8.50654C65.463 9.41115 67.279 9.13709 68.5872 7.97078C69.8941 6.80311 71.5678 4.00274 71.5678 4.00274Z" fill="#E94E60"/>
<path fill-rule="evenodd" clip-rule="evenodd" d="M70.4561 3.44803C71.4784 3.05652 73.1161 3.21724 75.7659 4.27914C78.4129 5.34448 81.4078 8.09951 79.8859 9.34068C78.3653 10.5798 78.0338 8.24169 75.028 7.04448C72.023 5.84658 70.1832 6.10072 70.1131 4.63494C70.0402 3.16779 70.4561 3.44803 70.4561 3.44803Z" fill="#E94E60"/>
<path fill-rule="evenodd" clip-rule="evenodd" d="M70.7368 10.7895C64.3687 11.0238 62.0306 11.0677 60.3691 10.5581C59.2917 10.2764 58.6348 10.749 59.1154 12.1296C59.6014 13.5061 61.2295 14.4224 65.926 14.4045C70.6218 14.3887 74.9705 13.7637 77.4052 13.3866C79.8372 13.0088 81.0678 12.6764 81.9281 12.7032C82.7878 12.7251 83.4739 12.1296 82.8341 11.5849C82.1936 11.0402 80.0536 10.6762 77.6829 10.5986C75.3101 10.5223 72.8496 10.7105 70.7368 10.7895Z" fill="#294467"/>
<path fill-rule="evenodd" clip-rule="evenodd" d="M77.2596 16.8063C72.4004 16.3894 72.3167 17.0825 65.8546 16.2802C64.2183 15.9278 63.411 15.05 62.6324 16.0535C61.8537 17.0591 63.9726 18.6403 65.2917 18.9157C66.6067 19.1939 73.3302 19.0428 75.4034 19.3182C77.4801 19.5937 77.0499 20.3176 75.1468 20.7586C73.2369 21.2023 68.5717 21.7367 65.0283 21.8438C61.4875 21.9544 58.4409 22.8838 59.0018 25.8455C59.5613 28.8094 63.2123 30.519 66.5441 30.5767C69.8772 30.6323 76.9567 29.0601 78.9483 28.2564C80.9412 27.4528 80.3075 27.7296 80.3075 27.7296C80.3075 27.7296 83.8864 26.7852 83.6815 25.5234C83.478 24.2651 80.833 23.7011 78.3765 25.3647C75.9214 27.0256 72.2786 27.347 70.5504 27.5744C68.8249 27.8038 64.7791 27.8546 64.511 25.8455C64.4408 24.6909 67.6848 24.9368 69.2007 24.8777C70.7185 24.8207 77.3821 23.6812 80.0639 22.4284C82.7456 21.1755 82.212 19.5682 81.4184 18.7406C80.6254 17.9115 79.309 16.9836 77.2596 16.8063Z" fill="#294467"/>
<path fill-rule="evenodd" clip-rule="evenodd" d="M91.4381 10.8084C88.3623 10.1888 85.4675 10.693 85.1748 10.7342C84.8835 10.7768 84.2259 10.9952 84.6289 12.6327C85.0359 14.2702 85.9582 13.661 87.1827 13.4212C88.412 13.1822 91.0264 12.9432 91.4218 13.4597C91.8152 13.979 91.3558 14.942 89.7957 16.5204C88.2398 18.1002 85.622 20.0207 85.1836 21.3113C84.7473 22.6006 85.1952 24.5952 87.4461 23.4516C88.6134 22.8348 87.9682 22.3725 88.5923 21.5586C89.2131 20.7433 92.7654 17.4408 93.3447 15.9894C93.9232 14.5367 94.7836 11.4829 91.4381 10.8084Z" fill="#A95E92"/>
<path fill-rule="evenodd" clip-rule="evenodd" d="M96.742 6.94006C95.7918 8.01433 96.3724 8.38867 95.9388 10.2968C95.5032 12.2083 94.4434 15.7437 94.634 20.47C94.826 25.1963 96.8672 26.6978 97.4199 27.1271C97.9706 27.5564 98.3436 26.4011 98.2891 25.083C98.2313 23.7608 99.1277 20.0125 99.3469 17.7562C99.5626 15.4991 99.9526 10.7666 99.7804 9.24382C99.6042 7.72103 98.2517 5.23594 96.742 6.94006Z" fill="#294467"/>
<path fill-rule="evenodd" clip-rule="evenodd" d="M111.51 18.3191C110.198 17.6796 108.573 17.2187 108.021 17.7476C107.477 18.2751 108.153 19.3185 108.206 20.9608C108.257 22.6052 108.811 23.8896 107.978 23.9858C107.141 24.0812 104.38 24.4439 103.783 24.3271C103.187 24.2131 101.317 23.6217 100.088 25.7002C98.8576 27.7793 102.277 28.2107 106.309 27.6557C112.567 26.7958 113.942 24.832 117.206 24.6417C119.53 24.4206 119.982 23.8353 117.384 23.6059C114.788 23.3745 112.536 23.7021 112.536 23.7021C112.536 23.7021 113.26 21.4622 113.093 20.4299C112.929 19.3961 112.501 18.7999 111.51 18.3191Z" fill="#294467"/>
<path fill-rule="evenodd" clip-rule="evenodd" d="M112.26 6.81999C108.706 5.7107 107.388 5.9195 106.888 6.45183C106.091 7.30286 107.323 8.15183 109.053 8.47465C110.553 8.75352 112.009 9.0372 112.161 9.61554C112.31 10.198 110.172 10.4968 107.094 11.0037C104.02 11.5092 101.028 13.394 101.555 15.2341C102.082 17.0722 103.405 19.1397 107.21 18.7846C109.417 18.5194 111.562 17.4156 112.759 16.8098C113.953 16.2081 115.667 15.3097 116.449 15.3633C117.23 15.4161 117.584 14.5768 117.225 14.3639C116.867 14.1516 116.219 12.2566 108.889 15.2609C105.547 16.5914 104.182 15.3949 105.159 14.3027C106.137 13.2106 109.829 13.0423 112.104 12.2751C114.384 11.5092 115.094 10.7372 115.115 9.61554C115.135 8.49938 113.436 7.18609 112.26 6.81999Z" fill="#85B536"/>
<path fill-rule="evenodd" clip-rule="evenodd" d="M128.344 11.2444C126.679 11.6372 126.538 9.92969 126.87 9.1185C127.206 8.30799 129.062 5.66561 130.427 6.04613C131.079 6.22609 131.317 8.00783 131.324 9.08484C131.329 10.1646 130.013 10.8508 128.344 11.2444ZM132.706 7.90136C132.489 6.77284 131.531 5.42039 131.531 5.42039C131.531 5.42039 132.258 5.08589 132.088 4.69987C131.919 4.31248 130.604 2.14884 129.169 2.91538C128.911 3.1448 128.769 3.19494 128.63 3.24302C126.387 4.03567 124.877 5.03987 123.856 7.06751C122.838 9.09652 123.076 10.4806 123.935 11.3591C124.791 12.2376 125.24 12.8255 126.919 13.0069C128.601 13.1889 130.53 12.8551 131.704 11.539C132.874 10.2209 132.929 9.03195 132.706 7.90136Z" fill="#008AD2"/>
<path fill-rule="evenodd" clip-rule="evenodd" d="M130.33 14.0954C125.778 15.3201 122.247 14.7775 120.797 14.3462C119.347 13.9141 118.492 13.7953 118.52 14.408C118.549 15.0234 120.042 16.7619 122.602 17.0971C125.16 17.4323 128.414 18.1342 132.531 16.8333C136.653 15.5262 138.128 14.0735 137.754 13.2231C137.377 12.3707 136.516 12.4312 130.33 14.0954Z" fill="#294467"/>
<path fill-rule="evenodd" clip-rule="evenodd" d="M132.403 20.3575C132.134 17.9651 131.497 17.088 130.365 16.2115C129.238 15.3351 127.764 15.6929 127.833 18.0716C127.907 20.4495 127.142 23.5033 126.538 24.5762C125.934 25.6512 125.633 27.5449 127.652 26.4706C129.666 25.3963 131.269 23.8605 132.021 22.5541C132.53 21.6584 132.403 20.3575 132.403 20.3575Z" fill="#294467"/>
<path fill-rule="evenodd" clip-rule="evenodd" d="M128.917 25.5827C124.992 25.571 122.691 23.6004 121.434 21.7115C120.18 19.8226 119.215 20.9024 120.046 23.2975C120.873 25.6953 124.586 29.8035 129.912 29.4038C135.239 29.0061 138.733 25.095 139.07 22.4107C139.318 20.4085 137.389 20.2244 135.505 22.3949C133.618 24.5648 131.854 25.5923 128.917 25.5827Z" fill="#294467"/>
<path fill-rule="evenodd" clip-rule="evenodd" d="M62.3288 39.4217C61.9592 39.4361 61.7325 38.5205 61.4868 36.745C61.2418 34.9715 60.38 32.5297 61.4868 32.4713C62.5928 32.4129 64.6028 34.027 64.8703 35.0608C65.1399 36.0911 65.2222 37.4092 63.9807 38.094C62.7371 38.7781 63.0748 39.3922 62.3288 39.4217Z" fill="#294467"/>
<path fill-rule="evenodd" clip-rule="evenodd" d="M62.697 38.698C58.2353 38.338 57.2586 40.1205 56.7583 41.0017C56.2594 41.8857 58.2455 42.4627 59.0691 42.7065C59.8954 42.9483 60.1949 43.0658 61.0907 42.5073C61.981 41.9427 64.1046 41.407 62.7848 43.3797C61.4643 45.3523 58.1795 48.5113 56.8345 49.1507C55.493 49.7902 54.3182 50.0512 54.617 51.3453C54.9158 52.638 57.897 53.5728 60.3134 51.0183C62.7263 48.4639 65.2978 45.0941 65.504 43.9312C65.7103 42.7663 66.8885 39.0359 62.697 38.698Z" fill="#294467"/>
<path fill-rule="evenodd" clip-rule="evenodd" d="M64.785 44.5448C66.1974 44.5057 68.3047 44.7007 69.538 46.5972C70.8176 48.5596 70.431 49.8193 69.604 50.4594C68.7253 51.1408 67.8398 52.2838 67.413 51.2068C66.9896 50.1297 66.1075 46.2579 64.2065 45.0661C63.8607 44.9143 63.7613 44.5757 64.785 44.5448Z" fill="#294467"/>
<path fill-rule="evenodd" clip-rule="evenodd" d="M71.8311 40.1543C71.0919 40.1406 68.7627 40.4572 67.7336 41.1455C66.7003 41.8323 66.7003 42.1373 67.4783 42.6319C68.1453 43.0543 69.4719 43.783 70.4153 43.2576C71.3594 42.7308 72.313 42.2548 72.5723 41.9745C72.8323 41.695 73.2877 40.1811 71.8311 40.1543Z" fill="#294467"/>
<path fill-rule="evenodd" clip-rule="evenodd" d="M72.382 37.272C71.3467 37.2954 70.9445 39.6411 70.8288 42.3851C70.7151 45.1291 71.3767 46.0908 72.0097 46.1162C72.6434 46.1443 73.5187 44.0913 73.8434 42.848C74.168 41.6034 75.398 39.9749 74.7568 38.4301C74.1163 36.8853 73.1784 37.2562 72.382 37.272Z" fill="#294467"/>
<path fill-rule="evenodd" clip-rule="evenodd" d="M79.792 35.5632C78.8337 35.4869 77.6309 37.4995 75.949 41.7079C74.2624 45.917 71.8059 50.6571 73.1488 55.0304C74.4911 59.4023 77.2001 58.8343 77.9624 58.4716C78.7241 58.1103 79.9356 57.9702 78.6451 54.6987C77.3553 51.4285 79.2761 46.6953 79.792 43.5865C80.3073 40.4777 82.4016 35.7713 79.792 35.5632Z" fill="#294467"/>
<path fill-rule="evenodd" clip-rule="evenodd" d="M91.6949 38.2184C87.6389 38.9719 86.3926 39.7488 84.8448 39.6094C83.2991 39.4713 83.3454 38.621 82.7008 39.678C82.0548 40.7386 81.8316 42.3479 84.7475 41.7799C87.6621 41.2153 90.4943 40.5085 91.9958 39.8731C93.4959 39.2364 96.1069 38.3222 96.1198 37.8565C96.1341 37.3894 94.0513 37.8668 93.4074 37.941C92.7663 38.0144 91.6949 38.2184 91.6949 38.2184Z" fill="#294467"/>
<path fill-rule="evenodd" clip-rule="evenodd" d="M89.385 46.7254C88.3497 47.3188 88.2395 46.8195 88.249 45.8469C88.2646 44.8756 88.7731 43.743 90.2099 43.438C90.8144 43.3089 90.7313 43.8206 90.7606 44.559C90.7851 45.298 90.4203 46.134 89.385 46.7254ZM90.7953 40.9151C89.7852 41.0072 87.4914 41.082 86.2567 43.1907C85.0172 45.3049 83.9023 47.8772 86.0416 48.8217C88.1802 49.7668 90.472 47.7886 91.2806 46.5543C92.0913 45.3186 91.8673 43.9154 92.0627 43.1907C92.2594 42.4702 92.2056 40.7874 90.7953 40.9151Z" fill="#294467"/>
<path fill-rule="evenodd" clip-rule="evenodd" d="M101.503 39.4493C97.486 39.3407 96.0695 39.9493 94.6136 40.4542C93.1591 40.959 92.4457 41.5222 93.5756 42.6872C94.7089 43.8507 96.3527 44.4861 97.5894 44.2766C98.8303 44.0671 101.141 42.9475 101.363 42.9434C101.584 42.9358 102.21 42.5477 102.593 41.5133C102.978 40.4789 102.964 39.4891 101.503 39.4493Z" fill="#294467"/>
<path fill-rule="evenodd" clip-rule="evenodd" d="M104.528 38.2135C104.7 36.4029 105.12 33.7008 104.246 33.3354C103.375 32.97 103.101 33.2172 103.223 34.049C103.348 34.8808 102 39.1408 101.678 42.0998C101.355 45.0561 101.24 45.1344 101.652 46.6771C102.068 48.2198 102.441 48.0014 103.163 46.6847C103.887 45.37 104.228 41.0723 104.302 40.2267C104.376 39.3846 104.528 38.2135 104.528 38.2135Z" fill="#294467"/>
<path fill-rule="evenodd" clip-rule="evenodd" d="M100.155 51.4339C100.073 53.8991 96.9064 55.0537 95.4253 54.7797C93.9476 54.507 93.7046 51.4738 93.7339 50.971C93.7611 50.4696 94.5806 49.7985 97.3059 49.2751C100.491 48.6631 100.237 48.7799 100.155 51.4339ZM100.592 47.5085C99.7366 47.2901 98.768 47.2901 97.7831 47.5085C94.2178 48.295 93.4562 48.9021 93.4562 48.9021C93.4562 48.9021 93.5086 47.7928 93.0069 47.8004C92.5053 47.8086 91.2168 47.6713 90.9384 51.5555C90.6614 55.4356 91.9322 58.0052 93.6148 58.69C95.0822 59.2855 98.8429 60.3577 101.246 54.0145C103.647 47.6713 101.448 47.7255 100.592 47.5085Z" fill="#294467"/>
<path fill-rule="evenodd" clip-rule="evenodd" d="M115.132 34.8888C110.664 35.8957 108.43 37.0504 107.983 37.7723C107.535 38.4955 108.987 38.863 109.824 38.7943C110.664 38.727 113.045 37.0092 115.732 36.7406C118.424 36.4707 118.357 37.4089 117.482 38.8953C116.611 40.3817 114.01 43.6017 115.549 44.6458C117.084 45.6905 118.858 44.3834 119.816 43.1175C120.773 41.8482 123 36.9597 118.982 34.9953C117.588 34.3936 115.132 34.8888 115.132 34.8888Z" fill="#294467"/>
<path fill-rule="evenodd" clip-rule="evenodd" d="M111.807 48.8309C112.707 46.0422 112.562 45.5628 112.563 44.5456C112.567 43.5304 112.085 41.987 110.46 44.0476C108.834 46.1116 107.228 48.5356 107.636 51.6766C107.849 52.9686 108.9 53.5126 108.977 54.0429C109.053 54.5697 109.972 54.1178 110.138 53.558C110.31 52.9982 111.807 48.8309 111.807 48.8309Z" fill="#294467"/>
<path fill-rule="evenodd" clip-rule="evenodd" d="M113.672 45.8717C113.672 45.8717 112.332 49.9901 112.612 51.4738C112.892 52.9533 113.311 51.958 114.315 51.4738C115.319 50.9868 116.001 48.2812 115.629 47.1582C115.255 46.0338 114.591 44.4059 113.672 45.8717Z" fill="#294467"/>
<path fill-rule="evenodd" clip-rule="evenodd" d="M106.059 52.7084C106.059 52.7084 113.587 54.1474 117.996 51.1712C122.401 48.1936 123.035 50.7295 123.037 51.0029C123.037 51.4954 121.17 53.6439 118.305 54.6323C115.426 55.6242 113.337 56.8557 107.82 55.5273C104.615 54.7477 105.278 53.2593 105.425 52.909C105.57 52.5587 105.783 52.661 106.059 52.7084Z" fill="#294467"/>
<path fill-rule="evenodd" clip-rule="evenodd" d="M130.952 35.106C130.873 33.9651 130.645 32.3221 128.087 34.0544C125.528 35.7873 122.755 39.8852 123.021 41.634C123.35 43.7687 124.787 43.5881 125.675 43.2687C126.799 42.8628 125.891 42.0426 127.594 40.8042C129.299 39.5672 130.19 37.9489 130.652 37.0093C131.02 36.2592 130.952 35.106 130.952 35.106Z" fill="#294467"/>
<path fill-rule="evenodd" clip-rule="evenodd" d="M129.099 38.4644C129.099 38.4644 130.344 39.3545 131.151 40.1067C131.941 40.8471 133.458 42.7284 133.19 43.1433C132.808 43.7333 130.74 43.1859 129.506 41.7909C128.269 40.3951 127.844 40.0407 127.837 39.9569C127.827 39.8738 126.847 37.1916 129.099 38.4644Z" fill="#294467"/>
<path fill-rule="evenodd" clip-rule="evenodd" d="M136.508 31.7991C135.945 31.1391 135.052 31.1693 135.076 32.6701C135.101 34.1716 134.719 35.6339 134.519 37.0331C134.315 38.4357 133.833 42.403 135.18 43.9313C136.526 45.4568 136.881 43.9505 136.909 42.9024C136.931 41.8522 136.571 40.782 136.615 39.6425C136.658 38.5071 137.256 35.3379 137.334 33.9394C137.419 32.5389 137.004 32.3816 136.508 31.7991Z" fill="#294467"/>
<path fill-rule="evenodd" clip-rule="evenodd" d="M130.894 45.1452C127.932 45.446 126.669 45.3464 125.451 45.5147C124.238 45.6823 124.857 47.4668 126.619 47.7965C128.383 48.1303 129.395 47.5375 131.049 46.9702C132.705 46.4042 133.219 46.898 132.238 47.6014C131.258 48.3061 129.278 49.5617 127.583 50.2857C125.89 51.0096 123.775 51.8833 123.664 53.4776C123.552 55.0759 127.297 57.2553 132.142 57.2443C140.25 57.2231 140.934 51.3579 141.754 49.6799C142.57 47.9991 140.308 48.5671 139.219 49.6167C138.128 50.6669 134.434 53.7434 129.823 53.1637C125.501 52.6217 127.519 52.4431 130.92 50.9464C134.318 49.4491 136.832 47.9366 136.454 46.4461C136.078 44.9556 133.565 44.8752 130.894 45.1452Z" fill="#294467"/>
<path fill-rule="evenodd" clip-rule="evenodd" d="M95.2377 31.7575C94.3835 30.6214 93.5245 31.6243 90.9244 30.4641C90.823 30.4119 90.7189 30.3652 90.6113 30.3213C90.6005 30.3151 90.5916 30.311 90.578 30.3055C86.1578 28.0045 83.1956 30.6414 83.5053 33.1835C83.8137 35.7228 87.1244 33.7027 86.7534 35.4838L86.7575 35.481C86.5832 36.3348 86.4689 37.0945 86.6016 37.6351C86.9004 38.8673 87.7492 38.5204 87.7492 38.5204C88.5721 38.3308 88.1331 36.1521 88.338 36.2277C88.5435 36.3053 88.3604 38.403 89.2255 38.1749C89.4379 38.1227 89.6367 38.0719 89.8232 38.0197C90.8727 37.6783 89.9926 36.4797 90.2295 35.7359C90.3561 35.3251 90.3439 36.1995 90.6549 36.9104C90.951 37.578 90.8986 37.69 91.3798 37.4104C92.038 37.0292 92.2987 36.8115 92.6227 35.9454C92.6724 35.6177 91.7494 35.0517 91.4628 34.8615C91.1668 34.6678 91.1041 34.4487 91.3097 34.5627C91.5071 34.674 92.3668 35.1912 93.123 35.152C95.1969 34.7543 95.9729 32.737 95.2377 31.7575Z" fill="#294467"/>
<path d="M49.2731 32.036C49.2731 44.8399 38.9885 55.2178 26.3038 55.2178C13.6178 55.2178 3.33179 44.8399 3.33179 32.036C3.33179 19.2341 13.6178 8.85552 26.3038 8.85552C38.9885 8.85552 49.2731 19.2341 49.2731 32.036Z" fill="#FFF468"/>
<path d="M20.3379 41.7515V27.9468C20.3379 24.8806 22.1968 22.2561 24.8418 21.1523V16.3689C24.8418 13.9924 26.7503 12.065 29.1054 12.065C31.4625 12.065 33.3717 13.9924 33.3717 16.3689V21.1523C36.0154 22.2561 37.8763 24.8806 37.8763 27.9468V41.7515H20.3379Z" fill="white"/>
<path d="M36.7862 40.6497H21.4287V27.9467C21.4287 25.4067 22.9349 23.1435 25.2594 22.1736C25.3118 22.1503 25.3547 22.1145 25.4016 22.0843L29.7762 25.6615C29.8422 25.7179 29.9232 25.7453 30.0028 25.7453C30.1104 25.7453 30.2152 25.6979 30.2867 25.6086C30.3486 25.531 30.3717 25.4376 30.3649 25.3469L31.1702 24.1538L32.8779 24.0268L34.1167 22.8316C35.7632 23.9794 36.7862 25.8662 36.7862 27.9467V40.6497ZM25.9346 16.3689C25.9346 14.6057 27.3571 13.1667 29.1057 13.1667C30.855 13.1667 32.2789 14.6057 32.2789 16.3689V21.1522C32.2789 21.381 32.3484 21.5953 32.4722 21.7738L29.2242 24.2692L25.8665 21.519C25.9087 21.4023 25.9346 21.2807 25.9346 21.1522V16.3689ZM34.4652 20.4509V16.3689C34.4652 13.3879 32.0625 10.9625 29.1057 10.9625C26.1524 10.9625 23.7483 13.3879 23.7483 16.3689V20.4509C20.9889 21.8995 19.2451 24.7658 19.2451 27.9467V41.7514C19.2451 42.3634 19.7338 42.8552 20.3376 42.8552H37.8759C38.4804 42.8552 38.9691 42.3634 38.9691 41.7514V27.9467C38.9691 24.7658 37.2232 21.8995 34.4652 20.4509Z" fill="#007FBD"/>
<path d="M21.7969 32.6276V27.8436C21.7969 25.4649 19.8877 23.5403 17.5313 23.5403C15.1769 23.5403 13.2656 25.4649 13.2656 27.8436V32.6276C10.624 33.728 8.76245 36.3539 8.76245 39.4187V46.9948C12.9764 52.0234 19.2683 55.218 26.3036 55.218V39.4187C26.3036 36.3539 24.4413 33.728 21.7969 32.6276Z" fill="white"/>
<path d="M43.8446 46.995V44.3629C43.8446 41.2995 41.9803 38.6716 39.338 37.5726V32.7858C39.338 30.4106 37.4274 28.4825 35.0723 28.4825C32.7179 28.4825 30.808 30.4106 30.808 32.7858V37.5726C28.1651 38.6716 26.3035 41.2995 26.3035 44.3629V55.2175C33.3367 55.2175 39.6306 52.0229 43.8446 46.995Z" fill="white"/>
<path d="M33.5041 34.3401C33.304 34.3401 33.1406 34.1766 33.1406 33.9719V33.2081C33.1406 33.0048 33.304 32.8393 33.5041 32.8393C33.7056 32.8393 33.8689 33.0048 33.8689 33.2081V33.9719C33.8689 34.1766 33.7056 34.3401 33.5041 34.3401Z" fill="#007FBD"/>
<path d="M36.639 34.3401C36.4395 34.3401 36.2769 34.1766 36.2769 33.9719V33.2081C36.2769 33.0048 36.4395 32.8393 36.639 32.8393C36.8432 32.8393 37.0045 33.0048 37.0045 33.2081V33.9719C37.0045 34.1766 36.8432 34.3401 36.639 34.3401Z" fill="#007FBD"/>
<path d="M15.9645 28.8501C15.7657 28.8501 15.6003 28.6859 15.6003 28.4826V27.0752C15.6003 26.8705 15.7657 26.7064 15.9645 26.7064C16.1653 26.7064 16.33 26.8705 16.33 27.0752V28.4826C16.33 28.6859 16.1653 28.8501 15.9645 28.8501Z" fill="#007FBD"/>
<path d="M19.0997 28.8501C18.8996 28.8501 18.7356 28.6859 18.7356 28.4826V27.0752C18.7356 26.8705 18.8996 26.7064 19.0997 26.7064C19.3039 26.7064 19.4625 26.8705 19.4625 27.0752V28.4826C19.4625 28.6859 19.3039 28.8501 19.0997 28.8501Z" fill="#007FBD"/>
<path d="M27.5404 17.2407C27.3389 17.2407 27.1763 17.0766 27.1763 16.8726V16.1067C27.1763 15.9048 27.3389 15.7399 27.5404 15.7399C27.7405 15.7399 27.9032 15.9048 27.9032 16.1067V16.8726C27.9032 17.0766 27.7405 17.2407 27.5404 17.2407Z" fill="#007FBD"/>
<path d="M30.6747 17.2407C30.474 17.2407 30.3113 17.0766 30.3113 16.8726V16.1067C30.3113 15.9048 30.474 15.7399 30.6747 15.7399C30.8755 15.7399 31.0382 15.9048 31.0382 16.1067V16.8726C31.0382 17.0766 30.8755 17.2407 30.6747 17.2407Z" fill="#007FBD"/>
<path d="M33.5702 43.6033H32.6445C32.4457 43.6033 32.2844 43.4391 32.2844 43.2358C32.2844 43.0332 32.4457 42.869 32.6445 42.869H33.5702C33.7703 42.869 33.9323 43.0332 33.9323 43.2358C33.9323 43.4391 33.7703 43.6033 33.5702 43.6033Z" fill="#007FBD"/>
<path d="M33.5702 46.7253H32.6445C32.4457 46.7253 32.2844 46.5626 32.2844 46.3599C32.2844 46.1566 32.4457 45.9918 32.6445 45.9918H33.5702C33.7703 45.9918 33.9323 46.1566 33.9323 46.3599C33.9323 46.5626 33.7703 46.7253 33.5702 46.7253Z" fill="#007FBD"/>
<path d="M33.5702 50.356H32.6445C32.4457 50.356 32.2844 50.1911 32.2844 49.9899C32.2844 49.7865 32.4457 49.621 32.6445 49.621H33.5702C33.7703 49.621 33.9323 49.7865 33.9323 49.9899C33.9323 50.1911 33.7703 50.356 33.5702 50.356Z" fill="#007FBD"/>
<path d="M38.1651 43.6033H37.2429C37.0434 43.6033 36.8794 43.4391 36.8794 43.2358C36.8794 43.0332 37.0434 42.869 37.2429 42.869H38.1651C38.3673 42.869 38.5307 43.0332 38.5307 43.2358C38.5307 43.4391 38.3673 43.6033 38.1651 43.6033Z" fill="#007FBD"/>
<path d="M38.1651 46.7253H37.2429C37.0434 46.7253 36.8794 46.5626 36.8794 46.3599C36.8794 46.1566 37.0434 45.9918 37.2429 45.9918H38.1651C38.3673 45.9918 38.5307 46.1566 38.5307 46.3599C38.5307 46.5626 38.3673 46.7253 38.1651 46.7253Z" fill="#007FBD"/>
<path d="M38.1651 50.356H37.2429C37.0434 50.356 36.8794 50.1911 36.8794 49.9899C36.8794 49.7865 37.0434 49.621 37.2429 49.621H38.1651C38.3673 49.621 38.5307 49.7865 38.5307 49.9899C38.5307 50.1911 38.3673 50.356 38.1651 50.356Z" fill="#007FBD"/>
<path d="M26.9746 27.4499C26.9746 27.963 26.5635 28.3772 26.0558 28.3772C25.5514 28.3772 25.1389 27.963 25.1389 27.4499C25.1389 26.9389 25.5514 26.5254 26.0558 26.5254C26.5635 26.5254 26.9746 26.9389 26.9746 27.4499Z" fill="#007FBD"/>
<path d="M26.9746 31.4933C26.9746 32.0043 26.5635 32.4192 26.0558 32.4192C25.5514 32.4192 25.1389 32.0043 25.1389 31.4933C25.1389 30.9816 25.5514 30.5674 26.0558 30.5674C26.5635 30.5674 26.9746 30.9816 26.9746 31.4933Z" fill="#007FBD"/>
<path d="M29.0239 18.1235C28.8252 18.1235 28.6611 17.9573 28.6611 17.754V15.8473C28.6611 15.6419 28.8252 15.4784 29.0239 15.4784C29.224 15.4784 29.3901 15.6419 29.3901 15.8473V17.754C29.3901 17.9573 29.224 18.1235 29.0239 18.1235Z" fill="#007FBD"/>
<path d="M29.0238 19.5657C28.9585 19.5657 28.889 19.5444 28.8291 19.508L27.6904 18.773C27.5223 18.6645 27.4712 18.4371 27.5801 18.2661C27.6897 18.0965 27.9137 18.0436 28.0838 18.1548L29.0299 18.7675L30.0693 18.1473C30.2435 18.0436 30.4654 18.1006 30.5648 18.2778C30.6696 18.4495 30.6124 18.6776 30.4402 18.7785L29.2096 19.5155C29.1524 19.5478 29.0891 19.5657 29.0238 19.5657Z" fill="#007FBD"/>
<path d="M17.5099 31.0039C16.4093 31.0039 15.8586 30.133 15.8328 30.0966C15.7279 29.9214 15.7797 29.6968 15.9491 29.5896C16.12 29.4832 16.3439 29.5333 16.4494 29.7023C16.4698 29.7332 16.8245 30.269 17.5099 30.269C18.211 30.269 18.5622 29.7112 18.5676 29.7057C18.6731 29.5333 18.8977 29.4811 19.0672 29.5896C19.2374 29.6968 19.2891 29.9214 19.1822 30.0966C19.1611 30.133 18.6064 31.0039 17.5099 31.0039Z" fill="#007FBD"/>
<path d="M36.4971 36.5945H33.6567C33.5512 36.5945 33.4491 36.5443 33.3804 36.4633L33.0074 36.0189C32.8781 35.8643 32.8992 35.6336 33.0537 35.501C33.2075 35.3684 33.4342 35.3883 33.5642 35.5443L33.8269 35.8561H36.329L36.5924 35.5443C36.7231 35.3883 36.9504 35.3684 37.107 35.501C37.2601 35.6336 37.2799 35.8643 37.1492 36.0189L36.7789 36.4633C36.7067 36.5443 36.606 36.5945 36.4971 36.5945Z" fill="#007FBD"/>
<path d="M35.0803 35.2886C34.8781 35.2886 34.7134 35.1258 34.7134 34.9245V34.5543C34.7134 34.3531 34.8781 34.1882 35.0803 34.1882C35.2804 34.1882 35.4444 34.3531 35.4444 34.5543V34.9245C35.4444 35.1258 35.2804 35.2886 35.0803 35.2886Z" fill="#007FBD"/>
<path d="M25.2105 42.8074C21.3505 41.1273 20.5535 35.8804 20.548 35.8179C20.546 35.8137 20.5426 35.8124 20.5412 35.8082L21.6119 33.7655C23.8015 34.7862 25.2105 36.969 25.2105 39.4184V42.8074ZM17.9643 36.241V34.9126L18.749 34.0437L20.9258 33.5017L19.4903 36.241H17.9643ZM16.8044 33.4928C16.7663 33.4564 16.72 33.4296 16.6703 33.4118C15.6037 33.0443 14.8707 32.7984 14.3582 32.6383C14.3582 32.6342 14.3602 32.6322 14.3602 32.6273V27.8433C14.3602 26.0767 15.7828 24.6418 17.5314 24.6418C19.28 24.6418 20.7059 26.0767 20.7059 27.8433V32.6273C20.7059 32.6844 20.7202 32.7379 20.7297 32.7943L18.4693 33.3561C18.3999 33.3747 18.3338 33.4118 18.2876 33.4653L17.5824 34.2456L16.8044 33.4928ZM17.2366 36.241H15.4989L15.1532 35.6764L13.8477 33.5478C13.9396 33.4873 14.024 33.4159 14.0927 33.3314C14.6998 33.5223 15.5568 33.8053 16.3606 34.0794L17.2366 34.9263V36.241ZM9.8536 42.7909V39.4184C9.8536 37.0645 11.157 34.9606 13.2038 33.8912L14.4623 35.9463C14.32 36.7307 13.3719 41.2359 9.8536 42.7909ZM22.8901 31.9247V27.8433C22.8901 24.8609 20.4847 22.4363 17.5314 22.4363C14.578 22.4363 12.1767 24.8609 12.1767 27.8433V31.9247C9.41594 33.3719 7.6687 36.2375 7.6687 39.4184V45.5851C11.8411 51.4173 18.6313 55.2178 26.3036 55.2178C26.6691 55.2178 27.0333 55.2054 27.3927 55.1882V39.4184C27.3927 36.2375 25.6495 33.3719 22.8901 31.9247Z" fill="#007FBD"/>
<path d="M35.8164 39.6538C33.9146 39.6634 32.5315 38.7423 31.774 38.0616C31.8489 37.9105 31.8985 37.7463 31.8985 37.5726V32.7858C31.8985 31.0212 33.3231 29.5857 35.0717 29.5857C36.8217 29.5857 38.2436 31.0212 38.2436 32.7858V37.5726C38.2436 37.7649 38.3042 37.9538 38.3974 38.1145C37.6426 38.8687 36.7325 39.3536 35.8164 39.6538ZM31.435 40.0838C31.3356 40.0714 31.2329 40.0996 31.1539 40.1669C31.0784 40.2321 31.0287 40.3276 31.0232 40.4327L30.3487 54.1137H27.3926V44.3629C27.3926 41.8277 28.8962 39.5617 31.2247 38.5905C31.2301 38.5864 31.2369 38.5823 31.2431 38.5788C31.7951 39.0857 32.652 39.7128 33.7948 40.0824C32.471 40.2225 31.4588 40.0906 31.435 40.0838ZM44.9358 45.5856V44.3629C44.9358 41.1848 43.1899 38.3178 40.4298 36.8713V32.7858C40.4298 29.8075 38.0285 27.3801 35.0717 27.3801C32.1184 27.3801 29.7136 29.8075 29.7136 32.7858V36.8713C26.955 38.3178 25.2104 41.1848 25.2104 44.3629V55.188C25.5739 55.2059 25.936 55.2175 26.3036 55.2175C28.7458 55.2175 31.1001 54.8288 33.3109 54.1137H31.0784L31.7297 40.8524C32.9427 40.952 36.6025 41.0048 38.9494 38.6042C41.2589 39.581 42.7502 41.8373 42.7502 44.3629V48.2094C43.5404 47.3941 44.2708 46.5128 44.9358 45.5856Z" fill="#007FBD"/>
<path d="M37.8409 23.879C37.5809 23.879 37.3318 23.9298 37.1065 24.0266C36.8015 23.1399 35.9752 22.5004 34.993 22.5004C34.0102 22.5004 33.1825 23.1399 32.8776 24.0266C32.6516 23.9298 32.4059 23.879 32.1438 23.879C31.1052 23.879 30.2632 24.7265 30.2632 25.7754C30.2632 26.8263 31.1052 27.6739 32.1438 27.6739V29.5635H37.8409V27.6739C38.8802 27.6739 39.7243 26.8263 39.7243 25.7754C39.7243 24.7265 38.8802 23.879 37.8409 23.879Z" fill="#F7CADE"/>
<path d="M32.8705 28.8293H37.1137V27.674C37.1137 27.2694 37.4404 26.9391 37.8406 26.9391C38.4777 26.9391 38.9964 26.4184 38.9964 25.7755C38.9964 25.134 38.4777 24.6113 37.8406 24.6113C37.6848 24.6113 37.5323 24.6435 37.39 24.7033C37.2042 24.7837 36.9966 24.7823 36.8101 24.6985C36.6263 24.6168 36.4841 24.4622 36.4174 24.2692C36.2057 23.6496 35.6339 23.2348 34.9935 23.2348C34.353 23.2348 33.7798 23.6496 33.5661 24.2692C33.5008 24.4622 33.3578 24.6168 33.1754 24.6985C32.9876 24.7823 32.7793 24.7837 32.5935 24.7033C32.4505 24.6435 32.2981 24.6113 32.1436 24.6113C31.5085 24.6113 30.9899 25.134 30.9899 25.7755C30.9899 26.4184 31.5085 26.9391 32.1436 26.9391C32.5465 26.9391 32.8705 27.2694 32.8705 27.674V28.8293ZM37.8406 30.2979H32.1436C31.742 30.2979 31.4153 29.9695 31.4153 29.5636V28.3052C30.3323 27.9865 29.5339 26.9713 29.5339 25.7755C29.5339 24.3235 30.704 23.1421 32.1436 23.1421C32.2586 23.1421 32.3729 23.1503 32.4859 23.1668C33.0216 22.3075 33.9636 21.7628 34.9935 21.7628C36.0233 21.7628 36.9639 22.3075 37.4976 23.1668C37.6112 23.1503 37.7256 23.1421 37.8406 23.1421C39.2802 23.1421 40.453 24.3235 40.453 25.7755C40.453 26.9713 39.6573 27.9865 38.5716 28.3052V29.5636C38.5716 29.9695 38.2436 30.2979 37.8406 30.2979Z" fill="#007FBD"/>
<path d="M26.3037 54.1141C21.0565 54.1141 16.2362 52.239 12.4633 49.1213C12.1951 46.448 10.2539 44.2734 7.71643 43.6669C5.63227 40.2868 4.42343 36.3002 4.42343 32.0361C4.42343 19.8614 14.2378 9.95947 26.3037 9.95947C38.3649 9.95947 48.1812 19.8614 48.1812 32.0361C48.1812 44.2095 38.3649 54.1141 26.3037 54.1141ZM51.707 17.3831C51.754 15.8212 49.6589 15.6619 48.885 17.241C48.1125 18.8173 46.3544 18.6236 45.639 17.5947C45.2993 17.1242 44.8208 16.4586 45.9392 15.7573C47.0425 15.01 47.7681 13.7421 47.7681 12.3037C47.7681 10.0103 45.9194 8.14339 43.646 8.14339C41.9492 8.14339 40.4885 9.18399 39.8582 10.6663V10.6649C39.5887 11.3078 39.2586 11.5475 38.5309 11.1271C38.5098 11.1162 38.5037 11.1162 38.4853 11.1086C34.9092 8.98068 30.7456 7.75256 26.3037 7.75256C13.0323 7.75256 2.2399 18.6463 2.2399 32.0361C2.2399 35.8029 3.0948 39.3739 4.6181 42.5569C4.92712 43.241 4.64601 43.6133 3.96876 43.9492C3.85985 43.9911 3.75367 44.0412 3.64749 44.0913C3.60733 44.1085 3.57194 44.1236 3.52838 44.1422L3.53246 44.1463C1.48778 45.1745 0.0720215 47.3011 0.0720215 49.7594C0.0720215 53.2157 2.85725 56.0271 6.28366 56.0271C8.53526 56.0271 10.5071 54.8058 11.5955 52.989H11.6016C12.1625 52.0075 12.6049 52.0185 13.2209 52.4107C13.2515 52.4279 13.2719 52.4361 13.2964 52.4512C17.0482 54.8937 21.5146 56.321 26.3037 56.321C39.571 56.321 50.3661 45.4259 50.3661 32.0361C50.3661 28.6574 49.6732 25.4374 48.4344 22.5134C48.4297 22.5086 48.4317 22.5044 48.4269 22.501C48.0505 21.5538 47.4761 20.5139 48.3371 19.2672C49.6589 17.5919 51.6614 18.9458 51.707 17.3831Z" fill="#007FBD"/>
<path d="M26.3037 11.6053L27.3301 3.00847L29.8805 3.65L32.3853 3.00847L32.7474 13.6755L26.0559 13.3905L26.3037 11.6053Z" fill="#AFDFF8"/>
<path d="M26.8897 12.689L27.9549 3.92246L29.7049 4.36274C29.8213 4.39502 29.9431 4.39502 30.0629 4.36274L31.6869 3.94444L31.8864 9.75466L28.8854 9.54928C28.4811 9.51219 28.1332 9.82747 28.1074 10.2313C28.0801 10.6359 28.383 10.9869 28.7853 11.0144L31.9381 11.2294L31.9946 12.9053L26.8897 12.689ZM33.473 13.5029L33.1129 2.98351C33.104 2.75959 32.9992 2.55353 32.8216 2.41959C32.6446 2.28771 32.4173 2.241 32.2056 2.29458L29.8798 2.89353L27.5098 2.29389C27.3083 2.2465 27.0912 2.28427 26.921 2.40173C26.7474 2.5233 26.6344 2.71151 26.6079 2.92031L25.5815 11.5062L25.3364 13.2886C25.3079 13.4926 25.3664 13.7014 25.4991 13.8594C25.6298 14.0194 25.8211 14.1142 26.0253 14.1238L32.7181 14.4082C32.7297 14.4096 32.7399 14.4109 32.7474 14.4109H32.7583C33.183 14.4322 33.49 14.0826 33.49 13.6753C33.49 13.6162 33.4852 13.5585 33.473 13.5029Z" fill="#007FBD"/>
<path d="M12.1711 24.4874C12.1711 24.4874 14.0538 25.1537 17.3815 25.5184C20.7092 25.8831 23.1297 25.6887 23.1297 25.6887L21.656 24.0684L20.776 20.2728C20.776 20.2728 18.2058 20.0674 15.3641 19.8737L14.06 23.0773L12.1711 24.4874Z" fill="#E7B57C"/>
<path d="M13.7602 24.1876C14.6219 24.3909 15.8743 24.6362 17.4575 24.8099C18.7745 24.9549 20.0998 25.0277 21.3978 25.0277C21.4556 25.0277 21.5128 25.0277 21.5686 25.027L21.135 24.5503C21.0534 24.4603 20.9955 24.3497 20.9676 24.2302L20.2053 20.9429C19.3899 20.879 17.6998 20.7499 15.8246 20.62L14.7138 23.3476C14.6654 23.4678 14.5844 23.5722 14.481 23.6498L13.7602 24.1876ZM21.3978 26.4536C20.0494 26.4536 18.6724 26.3774 17.305 26.2276C13.9351 25.8581 12.0177 25.1884 11.9381 25.1602C11.6903 25.073 11.512 24.8553 11.4732 24.5936C11.4337 24.3332 11.5406 24.0716 11.7509 23.9149L13.4818 22.6223L14.7104 19.6028C14.8261 19.3191 15.1024 19.144 15.4121 19.1625C18.2566 19.3562 20.8315 19.5616 20.8315 19.5616C21.1385 19.5863 21.3937 19.8082 21.4638 20.1104L22.301 23.724L23.6501 25.2063C23.8325 25.4068 23.8856 25.6946 23.7869 25.9488C23.6882 26.2022 23.4554 26.3774 23.1859 26.3987C23.1586 26.4014 22.4977 26.4536 21.3978 26.4536Z" fill="#007FBD"/>
<path d="M18.8392 24.0256C18.8249 24.0256 18.8106 24.0256 18.7957 24.0236L14.0175 23.4301C13.8242 23.4061 13.6867 23.2282 13.7098 23.0331C13.7336 22.838 13.9031 22.6931 14.1032 22.7233L18.8821 23.3161C19.0754 23.3395 19.2129 23.518 19.1891 23.7124C19.1673 23.8938 19.0148 24.0256 18.8392 24.0256Z" fill="#007FBD"/>
</svg>
