<svg width="37" height="37" viewBox="0 0 37 37" fill="none" xmlns="http://www.w3.org/2000/svg">
<path d="M18.5 13.875H24.6667C25.5146 13.875 26.2083 13.1812 26.2083 12.3333C26.2083 11.4854 25.5146 10.7917 24.6667 10.7917H18.5C17.6521 10.7917 16.9583 11.4854 16.9583 12.3333C16.9583 13.1812 17.6521 13.875 18.5 13.875ZM18.5 20.0417H24.6667C25.5146 20.0417 26.2083 19.3479 26.2083 18.5C26.2083 17.6521 25.5146 16.9583 24.6667 16.9583H18.5C17.6521 16.9583 16.9583 17.6521 16.9583 18.5C16.9583 19.3479 17.6521 20.0417 18.5 20.0417ZM18.5 26.2083H24.6667C25.5146 26.2083 26.2083 25.5146 26.2083 24.6667C26.2083 23.8188 25.5146 23.125 24.6667 23.125H18.5C17.6521 23.125 16.9583 23.8188 16.9583 24.6667C16.9583 25.5146 17.6521 26.2083 18.5 26.2083ZM10.7917 10.7917H13.875V13.875H10.7917V10.7917ZM10.7917 16.9583H13.875V20.0417H10.7917V16.9583ZM10.7917 23.125H13.875V26.2083H10.7917V23.125ZM30.8333 4.625H6.16667C5.31876 4.625 4.62501 5.31875 4.62501 6.16667V30.8333C4.62501 31.6812 5.31876 32.375 6.16667 32.375H30.8333C31.6813 32.375 32.375 31.6812 32.375 30.8333V6.16667C32.375 5.31875 31.6813 4.625 30.8333 4.625ZM29.2917 29.2917H7.70834V7.70833H29.2917V29.2917Z" fill="#B7B7B7"/>
</svg>
