<svg width="38" height="37" viewBox="0 0 38 37" fill="none" xmlns="http://www.w3.org/2000/svg">
<path d="M19 13.875H25.1667C26.0146 13.875 26.7083 13.1812 26.7083 12.3333C26.7083 11.4854 26.0146 10.7917 25.1667 10.7917H19C18.1521 10.7917 17.4583 11.4854 17.4583 12.3333C17.4583 13.1812 18.1521 13.875 19 13.875ZM19 20.0417H25.1667C26.0146 20.0417 26.7083 19.3479 26.7083 18.5C26.7083 17.6521 26.0146 16.9583 25.1667 16.9583H19C18.1521 16.9583 17.4583 17.6521 17.4583 18.5C17.4583 19.3479 18.1521 20.0417 19 20.0417ZM19 26.2083H25.1667C26.0146 26.2083 26.7083 25.5146 26.7083 24.6667C26.7083 23.8188 26.0146 23.125 25.1667 23.125H19C18.1521 23.125 17.4583 23.8188 17.4583 24.6667C17.4583 25.5146 18.1521 26.2083 19 26.2083ZM11.2917 10.7917H14.375V13.875H11.2917V10.7917ZM11.2917 16.9583H14.375V20.0417H11.2917V16.9583ZM11.2917 23.125H14.375V26.2083H11.2917V23.125ZM31.3333 4.625H6.66667C5.81875 4.625 5.125 5.31875 5.125 6.16667V30.8333C5.125 31.6812 5.81875 32.375 6.66667 32.375H31.3333C32.1812 32.375 32.875 31.6812 32.875 30.8333V6.16667C32.875 5.31875 32.1812 4.625 31.3333 4.625ZM29.7917 29.2917H8.20833V7.70833H29.7917V29.2917Z" fill="#296CAD"/>
</svg>
