<svg width="37" height="37" viewBox="0 0 37 37" fill="none" xmlns="http://www.w3.org/2000/svg">
<path d="M18.5 9.09579C20.2883 9.09579 21.7375 10.545 21.7375 12.3333C21.7375 14.1216 20.2883 15.5708 18.5 15.5708C16.7117 15.5708 15.2625 14.1216 15.2625 12.3333C15.2625 10.545 16.7117 9.09579 18.5 9.09579ZM18.5 22.9708C23.0788 22.9708 27.9042 25.2216 27.9042 26.2083V27.9041H9.09584V26.2083C9.09584 25.2216 13.9213 22.9708 18.5 22.9708ZM18.5 6.16663C15.0929 6.16663 12.3333 8.92621 12.3333 12.3333C12.3333 15.7404 15.0929 18.5 18.5 18.5C21.9071 18.5 24.6667 15.7404 24.6667 12.3333C24.6667 8.92621 21.9071 6.16663 18.5 6.16663ZM18.5 20.0416C14.3838 20.0416 6.16667 22.1075 6.16667 26.2083V30.8333H30.8333V26.2083C30.8333 22.1075 22.6163 20.0416 18.5 20.0416Z" fill="#296CAD"/>
</svg>
