<svg width="37" height="37" viewBox="0 0 37 37" fill="none" xmlns="http://www.w3.org/2000/svg">
<path d="M23.8958 21.5833H22.6779L22.2462 21.1671C24.0962 19.0087 25.0521 16.0642 24.5279 12.9346C23.8033 8.64874 20.2267 5.22624 15.91 4.70207C9.38874 3.9004 3.9004 9.38874 4.70207 15.91C5.22624 20.2267 8.64874 23.8033 12.9346 24.5279C16.0642 25.0521 19.0087 24.0962 21.1671 22.2462L21.5833 22.6779V23.8958L28.1354 30.4479C28.7675 31.08 29.8004 31.08 30.4325 30.4479C31.0646 29.8158 31.0646 28.7829 30.4325 28.1508L23.8958 21.5833ZM14.6458 21.5833C10.8071 21.5833 7.70832 18.4846 7.70832 14.6458C7.70832 10.8071 10.8071 7.70832 14.6458 7.70832C18.4846 7.70832 21.5833 10.8071 21.5833 14.6458C21.5833 18.4846 18.4846 21.5833 14.6458 21.5833Z" fill="#296CAD"/>
</svg>
