<svg width="38" height="37" viewBox="0 0 38 37" fill="none" xmlns="http://www.w3.org/2000/svg">
<path d="M24.3958 21.5834H23.1779L22.7463 21.1671C24.5963 19.0088 25.5521 16.0642 25.0279 12.9346C24.3033 8.64877 20.7267 5.22627 16.41 4.7021C9.88875 3.90044 4.40042 9.38877 5.20209 15.91C5.72625 20.2267 9.14875 23.8034 13.4346 24.5279C16.5642 25.0521 19.5088 24.0963 21.6671 22.2463L22.0833 22.6779V23.8959L28.6354 30.4479C29.2675 31.08 30.3004 31.08 30.9325 30.4479C31.5646 29.8159 31.5646 28.7829 30.9325 28.1509L24.3958 21.5834ZM15.1458 21.5834C11.3071 21.5834 8.20834 18.4846 8.20834 14.6459C8.20834 10.8071 11.3071 7.70835 15.1458 7.70835C18.9846 7.70835 22.0833 10.8071 22.0833 14.6459C22.0833 18.4846 18.9846 21.5834 15.1458 21.5834Z" fill="#B7B7B7"/>
</svg>
